<?xml version="1.0" encoding="utf-8"?>
<!-- Generator: Adobe Illustrator 26.5.0, SVG Export Plug-In . SVG Version: 6.00 Build 0)  -->
<svg version="1.1" id="Layer_1" xmlns="http://www.w3.org/2000/svg" xmlns:xlink="http://www.w3.org/1999/xlink" x="0px" y="0px"
	 viewBox="0 0 204.46 204.46" style="enable-background:new 0 0 204.46 204.46;" xml:space="preserve">
<style type="text/css">
	.st0{fill:#FFFFFF;}
	.st1{enable-background:new    ;}
	.st2{fill:none;stroke:#3C3C3B;stroke-width:1.064;stroke-miterlimit:10;}
	.st3{opacity:0.8;fill:url(#SVGID_1_);enable-background:new    ;}
	.st4{opacity:0.6;fill:url(#SVGID_00000160156119602735424220000006229682137826021515_);enable-background:new    ;}
</style>
<rect y="1.27" class="st0" width="203.19" height="203.19"/>
<g class="st1">
	<path d="M13.43,193.99c-0.69-0.8-1.09-1.91-1.09-3.05v-12.71c0-1.15,0.4-2.25,1.09-3.05l0.1-0.12c0.69-0.72,1.59-1.14,2.55-1.14
		h4.6c4.27,0,7.77,4.12,7.77,8.97v3.4c0,4.89-3.51,8.97-7.77,8.97h-4.6c-0.96,0-1.85-0.42-2.55-1.15L13.43,193.99z M14.36,193.57
		c0.5,0.42,1.09,0.65,1.72,0.65h4.6c3.74,0,6.91-3.55,6.91-7.94v-3.4c0-4.39-3.18-7.94-6.91-7.94h-4.6c-0.63,0-1.22,0.23-1.72,0.65
		v-0.04l-0.3,0.34c-0.53,0.61-0.83,1.45-0.83,2.33v12.71c0,0.88,0.3,1.72,0.83,2.33l0.3,0.34V193.57z"/>
	<path d="M32.62,190.9c0.76,2.02,2.55,3.32,4.4,3.32h6.15c0.23,0,0.43,0.23,0.43,0.5c0,0.3-0.2,0.53-0.43,0.53h-6.15
		c-3.34,0-5.72-3.25-5.72-6.91v-2.63c0-3.59,2.61-6.61,5.72-6.61h2.55c3.11,0,5.72,3.02,5.72,6.61v2.67c0,0.54-0.36,0.96-0.79,0.96
		H32.02L32.62,190.9z M44.4,185.71c0-3.02-2.22-5.57-4.83-5.57h-2.55c-2.58,0-4.83,2.52-4.83,5.57v2.6H44.4V185.71z"/>
	<path d="M48.7,179.64c0-0.31,0.2-0.54,0.46-0.54c0.23,0,0.43,0.23,0.43,0.54v9.09c0.07,3.05,2.28,5.5,4.83,5.5h1.19
		c2.61,0,4.83-2.56,4.83-5.57v-9.01c0-0.31,0.2-0.54,0.43-0.54c0.26,0,0.46,0.23,0.46,0.54v9.09c-0.07,3.55-2.61,6.53-5.72,6.53
		h-1.19c-3.11,0-5.66-2.98-5.72-6.53v-0.04V179.64z"/>
	<path d="M65.1,188.72c0,3.02,2.15,5.5,4.76,5.5h1.26c0.23,0,0.43,0.23,0.43,0.53c0,0.27-0.2,0.5-0.43,0.5h-1.26
		c-3.11,0-5.66-2.94-5.66-6.53v-14.32c0-0.27,0.2-0.5,0.43-0.5c0.26,0,0.46,0.23,0.46,0.5v4.66h5.69c0.26,0,0.46,0.23,0.46,0.5
		c0,0.3-0.2,0.53-0.46,0.53H65.1v6.72V188.72z"/>
	<path d="M76.55,190.9c0.76,2.02,2.55,3.32,4.4,3.32h6.15c0.23,0,0.43,0.23,0.43,0.5c0,0.3-0.2,0.53-0.43,0.53h-6.15
		c-3.34,0-5.72-3.25-5.72-6.91v-2.63c0-3.59,2.61-6.61,5.72-6.61h2.55c3.11,0,5.72,3.02,5.72,6.61v2.67c0,0.54-0.36,0.96-0.79,0.96
		H75.95L76.55,190.9z M88.33,185.71c0-3.02-2.22-5.57-4.83-5.57h-2.55c-2.58,0-4.83,2.52-4.83,5.57v2.6h12.21V185.71z"/>
	<path d="M92.63,185.63c0.07-3.55,2.61-6.53,5.72-6.53h1.79c1.52,0,2.98,0.69,4.04,1.95c0.1,0.08,0.13,0.23,0.13,0.34
		c0,0.3-0.2,0.54-0.43,0.54c-0.13,0-0.23-0.04-0.33-0.15c-0.93-1.03-2.15-1.64-3.41-1.64h-1.79c-2.55,0-4.76,2.48-4.83,5.46v9.12
		c0,0.3-0.2,0.53-0.43,0.53c-0.26,0-0.46-0.23-0.46-0.53v-9.05V185.63z"/>
	<path d="M114.56,179.1c3.11,0,5.72,3.02,5.72,6.61v2.94c0,3.59-2.61,6.6-5.72,6.6h-2.55c-3.11,0-5.72-3.02-5.72-6.6v-2.94
		c0-3.59,2.61-6.61,5.72-6.61H114.56z M112.01,180.13c-2.55,0-4.83,2.48-4.83,5.57v2.94c0,2.98,2.22,5.57,4.83,5.57h2.55
		c2.61,0,4.83-2.56,4.83-5.57v-2.94c0-3.05-2.25-5.57-4.83-5.57H112.01z"/>
	<path d="M135.5,183.57c-0.23,0-0.43-0.23-0.43-0.5c0-0.15,0-0.27,0-0.34c0-0.5-0.26-1.14-0.56-1.56l-0.13-0.15
		c-0.46-0.53-1.09-0.84-1.75-0.84h-5.39c-1.36,0-2.48,1.3-2.48,2.86c0,5.8,11.61,1.37,11.61,8.28c0,2.1-1.49,3.93-3.41,3.93h-5.89
		c-1.72,0-3.37-1.64-3.37-3.51c0-0.38,0.03-0.99,0.46-0.99c0.26,0,0.46,0.23,0.46,0.53c0,0.19,0,0.31,0,0.42
		c0,1.37,1.29,2.48,2.45,2.48h5.89c1.36,0,2.48-1.3,2.48-2.86c0-2.21-1.75-2.9-3.11-3.21c-2.88-0.65-8.5-0.42-8.5-5.08
		c0-2.21,1.59-3.93,3.41-3.93h5.39c0.89,0,1.75,0.42,2.38,1.15l0.1,0.11c0.5,0.61,0.89,1.53,0.89,2.33c0,0.11-0.03,0.23-0.03,0.38
		C135.96,183.34,135.76,183.57,135.5,183.57z"/>
	<path d="M147.51,195.25c-0.23,0-0.43-0.23-0.43-0.5v-4.62c0-5.27,5.13-5.5,8.07-6.03c3.24-0.5,7.61-1.07,7.61-5.12
		c0-1.11-0.4-2.1-1.06-2.9l-0.3-0.31c-0.63-0.57-1.39-0.88-2.18-0.88h-7.34c-0.79,0-1.59,0.31-2.18,0.88l-0.33,0.31
		c-0.66,0.8-1.03,1.79-1.03,2.9c0,0.27-0.2,0.5-0.43,0.5c-0.26,0-0.46-0.23-0.46-0.5v-0.04c0-1.34,0.46-2.63,1.29-3.55l0.13-0.15
		c0.79-0.88,1.89-1.38,3.01-1.38h7.34c1.12,0,2.18,0.5,3.01,1.38l0.1,0.15c0.83,0.96,1.32,2.21,1.32,3.59c0,5.69-5.66,5.34-8.4,6.15
		c-3.34,0.53-7.28,1.07-7.28,5v4.09h15.05c0.23,0,0.43,0.23,0.43,0.53c0,0.27-0.2,0.5-0.43,0.5h-15.08H147.51z"/>
	<path d="M168.21,194.22c0,0.57-0.4,1.03-0.89,1.03s-0.89-0.46-0.89-1.03c0-0.57,0.4-1.03,0.89-1.03S168.21,193.65,168.21,194.22z"
		/>
	<path d="M188.23,182.88v3.4c0,4.85-3.51,8.97-7.77,8.97c-4.23,0-7.77-4.08-7.77-8.97v-3.4c0-4.89,3.54-8.97,7.77-8.97
		C184.72,173.91,188.23,178.03,188.23,182.88z M173.57,186.28c0,4.35,3.11,7.94,6.88,7.94c1.82,0,3.57-0.8,4.86-2.33h0.03
		c1.29-1.49,1.99-3.51,1.99-5.61v-3.4c0-2.1-0.69-4.12-1.99-5.61h-0.03c-1.29-1.53-3.04-2.33-4.86-2.33c-3.77,0-6.88,3.59-6.88,7.94
		V186.28z"/>
</g>
<g class="st1">
	<path class="st2" d="M13.43,193.99c-0.69-0.8-1.09-1.91-1.09-3.05v-12.71c0-1.15,0.4-2.25,1.09-3.05l0.1-0.12
		c0.69-0.72,1.59-1.14,2.55-1.14h4.6c4.27,0,7.77,4.12,7.77,8.97v3.4c0,4.89-3.51,8.97-7.77,8.97h-4.6c-0.96,0-1.85-0.42-2.55-1.15
		L13.43,193.99z M14.36,193.57c0.5,0.42,1.09,0.65,1.72,0.65h4.6c3.74,0,6.91-3.55,6.91-7.94v-3.4c0-4.39-3.18-7.94-6.91-7.94h-4.6
		c-0.63,0-1.22,0.23-1.72,0.65v-0.04l-0.3,0.34c-0.53,0.61-0.83,1.45-0.83,2.33v12.71c0,0.88,0.3,1.72,0.83,2.33l0.3,0.34V193.57z"
		/>
	<path class="st2" d="M32.62,190.9c0.76,2.02,2.55,3.32,4.4,3.32h6.15c0.23,0,0.43,0.23,0.43,0.5c0,0.3-0.2,0.53-0.43,0.53h-6.15
		c-3.34,0-5.72-3.25-5.72-6.91v-2.63c0-3.59,2.61-6.61,5.72-6.61h2.55c3.11,0,5.72,3.02,5.72,6.61v2.67c0,0.54-0.36,0.96-0.79,0.96
		H32.02L32.62,190.9z M44.4,185.71c0-3.02-2.22-5.57-4.83-5.57h-2.55c-2.58,0-4.83,2.52-4.83,5.57v2.6H44.4V185.71z"/>
	<path class="st2" d="M48.7,179.64c0-0.31,0.2-0.54,0.46-0.54c0.23,0,0.43,0.23,0.43,0.54v9.09c0.07,3.05,2.28,5.5,4.83,5.5h1.19
		c2.61,0,4.83-2.56,4.83-5.57v-9.01c0-0.31,0.2-0.54,0.43-0.54c0.26,0,0.46,0.23,0.46,0.54v9.09c-0.07,3.55-2.61,6.53-5.72,6.53
		h-1.19c-3.11,0-5.66-2.98-5.72-6.53v-0.04V179.64z"/>
	<path class="st2" d="M65.1,188.72c0,3.02,2.15,5.5,4.76,5.5h1.26c0.23,0,0.43,0.23,0.43,0.53c0,0.27-0.2,0.5-0.43,0.5h-1.26
		c-3.11,0-5.66-2.94-5.66-6.53v-14.32c0-0.27,0.2-0.5,0.43-0.5c0.26,0,0.46,0.23,0.46,0.5v4.66h5.69c0.26,0,0.46,0.23,0.46,0.5
		c0,0.3-0.2,0.53-0.46,0.53H65.1v6.72V188.72z"/>
	<path class="st2" d="M76.55,190.9c0.76,2.02,2.55,3.32,4.4,3.32h6.15c0.23,0,0.43,0.23,0.43,0.5c0,0.3-0.2,0.53-0.43,0.53h-6.15
		c-3.34,0-5.72-3.25-5.72-6.91v-2.63c0-3.59,2.61-6.61,5.72-6.61h2.55c3.11,0,5.72,3.02,5.72,6.61v2.67c0,0.54-0.36,0.96-0.79,0.96
		H75.95L76.55,190.9z M88.33,185.71c0-3.02-2.22-5.57-4.83-5.57h-2.55c-2.58,0-4.83,2.52-4.83,5.57v2.6h12.21V185.71z"/>
	<path class="st2" d="M92.63,185.63c0.07-3.55,2.61-6.53,5.72-6.53h1.79c1.52,0,2.98,0.69,4.04,1.95c0.1,0.08,0.13,0.23,0.13,0.34
		c0,0.3-0.2,0.54-0.43,0.54c-0.13,0-0.23-0.04-0.33-0.15c-0.93-1.03-2.15-1.64-3.41-1.64h-1.79c-2.55,0-4.76,2.48-4.83,5.46v9.12
		c0,0.3-0.2,0.53-0.43,0.53c-0.26,0-0.46-0.23-0.46-0.53v-9.05V185.63z"/>
	<path class="st2" d="M114.56,179.1c3.11,0,5.72,3.02,5.72,6.61v2.94c0,3.59-2.61,6.6-5.72,6.6h-2.55c-3.11,0-5.72-3.02-5.72-6.6
		v-2.94c0-3.59,2.61-6.61,5.72-6.61H114.56z M112.01,180.13c-2.55,0-4.83,2.48-4.83,5.57v2.94c0,2.98,2.22,5.57,4.83,5.57h2.55
		c2.61,0,4.83-2.56,4.83-5.57v-2.94c0-3.05-2.25-5.57-4.83-5.57H112.01z"/>
	<path class="st2" d="M135.5,183.57c-0.23,0-0.43-0.23-0.43-0.5c0-0.15,0-0.27,0-0.34c0-0.5-0.26-1.14-0.56-1.56l-0.13-0.15
		c-0.46-0.53-1.09-0.84-1.75-0.84h-5.39c-1.36,0-2.48,1.3-2.48,2.86c0,5.8,11.61,1.37,11.61,8.28c0,2.1-1.49,3.93-3.41,3.93h-5.89
		c-1.72,0-3.37-1.64-3.37-3.51c0-0.38,0.03-0.99,0.46-0.99c0.26,0,0.46,0.23,0.46,0.53c0,0.19,0,0.31,0,0.42
		c0,1.37,1.29,2.48,2.45,2.48h5.89c1.36,0,2.48-1.3,2.48-2.86c0-2.21-1.75-2.9-3.11-3.21c-2.88-0.65-8.5-0.42-8.5-5.08
		c0-2.21,1.59-3.93,3.41-3.93h5.39c0.89,0,1.75,0.42,2.38,1.15l0.1,0.11c0.5,0.61,0.89,1.53,0.89,2.33c0,0.11-0.03,0.23-0.03,0.38
		C135.96,183.34,135.76,183.57,135.5,183.57z"/>
	<path class="st2" d="M147.51,195.25c-0.23,0-0.43-0.23-0.43-0.5v-4.62c0-5.27,5.13-5.5,8.07-6.03c3.24-0.5,7.61-1.07,7.61-5.12
		c0-1.11-0.4-2.1-1.06-2.9l-0.3-0.31c-0.63-0.57-1.39-0.88-2.18-0.88h-7.34c-0.79,0-1.59,0.31-2.18,0.88l-0.33,0.31
		c-0.66,0.8-1.03,1.79-1.03,2.9c0,0.27-0.2,0.5-0.43,0.5c-0.26,0-0.46-0.23-0.46-0.5v-0.04c0-1.34,0.46-2.63,1.29-3.55l0.13-0.15
		c0.79-0.88,1.89-1.38,3.01-1.38h7.34c1.12,0,2.18,0.5,3.01,1.38l0.1,0.15c0.83,0.96,1.32,2.21,1.32,3.59c0,5.69-5.66,5.34-8.4,6.15
		c-3.34,0.53-7.28,1.07-7.28,5v4.09h15.05c0.23,0,0.43,0.23,0.43,0.53c0,0.27-0.2,0.5-0.43,0.5h-15.08H147.51z"/>
	<path class="st2" d="M168.21,194.22c0,0.57-0.4,1.03-0.89,1.03s-0.89-0.46-0.89-1.03c0-0.57,0.4-1.03,0.89-1.03
		S168.21,193.65,168.21,194.22z"/>
	<path class="st2" d="M188.23,182.88v3.4c0,4.85-3.51,8.97-7.77,8.97c-4.23,0-7.77-4.08-7.77-8.97v-3.4c0-4.89,3.54-8.97,7.77-8.97
		C184.72,173.91,188.23,178.03,188.23,182.88z M173.57,186.28c0,4.35,3.11,7.94,6.88,7.94c1.82,0,3.57-0.8,4.86-2.33h0.03
		c1.29-1.49,1.99-3.51,1.99-5.61v-3.4c0-2.1-0.69-4.12-1.99-5.61h-0.03c-1.29-1.53-3.04-2.33-4.86-2.33c-3.77,0-6.88,3.59-6.88,7.94
		V186.28z"/>
</g>
<g>
	
		<linearGradient id="SVGID_1_" gradientUnits="userSpaceOnUse" x1="27.46" y1="115.9348" x2="130.71" y2="115.9348" gradientTransform="matrix(1 0 0 -1 0 203.8898)">
		<stop  offset="0" style="stop-color:#87CFE8"/>
		<stop  offset="1" style="stop-color:#3D72B8"/>
	</linearGradient>
	<polygon class="st3" points="130.66,166.73 130.61,166.73 130.55,166.73 130.5,166.73 130.44,166.73 130.39,166.72 130.33,166.72 
		130.28,166.72 130.23,166.71 130.17,166.71 130.12,166.71 130.07,166.71 130.01,166.71 129.96,166.71 129.9,166.7 129.85,166.7 
		129.79,166.7 129.74,166.69 129.69,166.68 129.63,166.68 129.58,166.67 129.52,166.66 129.47,166.66 129.42,166.65 129.36,166.64 
		129.31,166.63 129.26,166.62 129.2,166.61 129.15,166.59 129.09,166.58 129.04,166.57 128.98,166.55 128.93,166.54 128.88,166.52 
		128.82,166.5 128.77,166.48 128.72,166.45 128.66,166.43 128.61,166.4 128.55,166.37 128.5,166.34 128.45,166.31 128.39,166.28 
		128.34,166.23 128.28,166.19 128.23,166.15 128.18,166.1 128.12,166.05 128.07,166 128.02,165.94 127.96,165.88 127.91,165.81 
		127.85,165.75 127.8,165.68 127.74,165.6 127.69,165.52 127.64,165.43 127.58,165.33 127.53,165.24 127.48,165.14 127.42,165.03 
		127.37,164.91 127.31,164.8 127.26,164.67 127.21,164.54 127.15,164.4 127.1,164.26 127.04,164.11 126.99,163.95 126.93,163.78 
		126.88,163.61 126.83,163.43 126.77,163.23 126.72,163.04 126.67,162.84 126.61,162.62 126.56,162.4 126.5,162.17 126.45,161.93 
		126.4,161.68 126.34,161.43 126.29,161.17 126.23,160.89 126.18,160.62 126.12,160.33 126.07,160.03 126.02,159.73 125.96,159.42 
		125.91,159.1 125.86,158.77 125.8,158.44 125.75,158.09 125.69,157.75 125.64,157.4 125.58,157.03 125.53,156.67 125.48,156.29 
		125.42,155.92 125.37,155.54 125.32,155.16 125.26,154.77 125.21,154.37 125.15,153.98 125.1,153.58 125.05,153.19 124.99,152.79 
		124.94,152.39 124.88,151.99 124.83,151.59 124.77,151.2 124.72,150.81 124.67,150.42 124.61,150.03 124.56,149.65 124.51,149.27 
		124.45,148.91 124.4,148.54 124.34,148.18 124.29,147.84 124.23,147.5 124.18,147.17 124.13,146.86 124.07,146.54 124.02,146.25 
		123.96,145.97 123.91,145.7 123.86,145.44 123.8,145.21 123.75,144.97 123.7,144.77 123.64,144.57 123.59,144.39 123.53,144.23 
		123.48,144.08 123.42,143.95 123.37,143.84 123.32,143.75 123.26,143.68 123.21,143.62 123.16,143.58 123.1,143.57 123.05,143.57 
		123,143.58 122.94,143.62 122.89,143.68 122.83,143.75 122.78,143.84 122.73,143.95 122.67,144.08 122.62,144.23 122.56,144.39 
		122.51,144.57 122.46,144.77 122.4,144.97 122.35,145.21 122.29,145.44 122.24,145.7 122.19,145.97 122.13,146.25 122.08,146.54 
		122.02,146.86 121.97,147.17 121.92,147.5 121.86,147.84 121.81,148.18 121.75,148.54 121.7,148.91 121.65,149.27 121.59,149.65 
		121.54,150.03 121.48,150.42 121.43,150.81 121.37,151.2 121.32,151.59 121.27,151.99 121.21,152.39 121.16,152.79 121.11,153.19 
		121.05,153.58 121,153.98 120.94,154.37 120.89,154.77 120.84,155.16 120.78,155.54 120.73,155.92 120.67,156.29 120.62,156.67 
		120.57,157.03 120.51,157.4 120.46,157.75 120.4,158.09 120.35,158.44 120.3,158.77 120.24,159.1 120.19,159.42 120.13,159.73 
		120.08,160.03 120.03,160.33 119.97,160.62 119.92,160.89 119.86,161.17 119.81,161.43 119.76,161.68 119.7,161.93 119.65,162.17 
		119.59,162.4 119.54,162.62 119.49,162.84 119.43,163.04 119.38,163.23 119.32,163.43 119.27,163.61 119.21,163.78 119.16,163.95 
		119.11,164.11 119.05,164.26 119,164.4 118.95,164.54 118.89,164.67 118.84,164.8 118.78,164.91 118.73,165.03 118.68,165.14 
		118.62,165.24 118.57,165.33 118.51,165.43 118.46,165.52 118.41,165.6 118.35,165.68 118.3,165.75 118.24,165.81 118.19,165.88 
		118.14,165.94 118.08,166 118.03,166.05 117.97,166.1 117.92,166.15 117.87,166.19 117.81,166.23 117.76,166.28 117.7,166.31 
		117.65,166.34 117.6,166.37 117.54,166.4 117.49,166.43 117.44,166.45 117.38,166.48 117.33,166.5 117.27,166.52 117.22,166.54 
		117.17,166.55 117.11,166.57 117.06,166.58 117,166.59 116.95,166.61 116.9,166.62 116.84,166.63 116.79,166.64 116.74,166.65 
		116.68,166.66 116.63,166.66 116.57,166.67 116.52,166.68 116.46,166.68 116.41,166.69 116.36,166.7 116.3,166.7 116.25,166.7 
		116.19,166.71 116.14,166.71 116.09,166.71 116.03,166.71 115.98,166.71 115.93,166.71 115.88,166.72 115.88,166.72 115.82,166.72 
		115.77,166.72 115.72,166.69 115.66,166.69 115.61,166.69 115.55,166.67 115.5,166.67 115.45,166.66 115.39,166.66 115.34,166.65 
		115.28,166.65 115.23,166.63 115.18,166.62 115.12,166.62 115.07,166.59 115.01,166.57 114.96,166.56 114.9,166.53 114.85,166.51 
		114.8,166.49 114.74,166.46 114.69,166.44 114.64,166.41 114.58,166.37 114.53,166.34 114.47,166.28 114.42,166.25 114.37,166.21 
		114.31,166.15 114.26,166.11 114.2,166.05 114.15,165.98 114.1,165.92 114.04,165.83 113.99,165.76 113.93,165.67 113.88,165.57 
		113.83,165.47 113.78,165.38 113.72,165.28 113.67,165.13 113.61,165.02 113.56,164.87 113.5,164.73 113.45,164.57 113.4,164.39 
		113.34,164.22 113.29,164.01 113.23,163.81 113.18,163.59 113.13,163.37 113.07,163.11 113.02,162.86 112.96,162.59 112.91,162.28 
		112.86,161.98 112.8,161.66 112.75,161.32 112.69,160.94 112.64,160.58 112.59,160.17 112.53,159.77 112.48,159.31 112.42,158.85 
		112.37,158.37 112.32,157.86 112.26,157.34 112.21,156.78 112.15,156.2 112.1,155.59 112.05,154.97 111.99,154.33 111.94,153.64 
		111.88,152.93 111.83,152.2 111.78,151.43 111.72,150.66 111.67,149.84 111.62,149.02 111.56,148.14 111.51,147.27 111.45,146.35 
		111.4,145.39 111.34,144.43 111.29,143.44 111.24,142.44 111.18,141.38 111.13,140.33 111.07,139.23 111.02,138.12 110.97,137.02 
		110.91,135.85 110.86,134.69 110.8,133.5 110.75,132.32 110.7,131.1 110.64,129.87 110.59,128.64 110.53,127.39 110.48,126.12 
		110.43,124.87 110.37,123.6 110.32,122.32 110.27,121.06 110.21,119.78 110.16,118.53 110.1,117.26 110.05,116.03 109.99,114.79 
		109.94,113.54 109.89,112.35 109.83,111.14 109.78,109.97 109.72,108.8 109.67,107.68 109.62,106.57 109.56,105.49 109.51,104.46 
		109.46,103.44 109.4,102.45 109.35,101.52 109.29,100.62 109.24,99.76 109.18,98.95 109.13,98.19 109.08,97.45 109.02,96.8 
		108.97,96.17 108.91,95.59 108.86,95.08 108.81,94.61 108.75,94.21 108.7,93.86 108.64,93.55 108.59,93.32 108.54,93.14 
		108.48,93.03 108.43,92.97 108.38,92.97 108.32,93.03 108.27,93.14 108.22,93.32 108.16,93.55 108.11,93.86 108.05,94.21 
		108,94.61 107.94,95.08 107.89,95.59 107.84,96.17 107.78,96.8 107.73,97.45 107.67,98.19 107.62,98.95 107.57,99.76 
		107.51,100.62 107.46,101.52 107.41,102.45 107.35,103.44 107.3,104.46 107.24,105.49 107.19,106.57 107.13,107.68 107.08,108.8 
		107.03,109.97 106.97,111.14 106.92,112.35 106.87,113.54 106.81,114.79 106.76,116.03 106.7,117.26 106.65,118.53 106.6,119.78 
		106.54,121.06 106.49,122.32 106.43,123.6 106.38,124.87 106.32,126.12 106.27,127.39 106.22,128.64 106.16,129.87 106.11,131.1 
		106.06,132.32 106,133.5 105.95,134.69 105.89,135.85 105.84,137.02 105.78,138.12 105.73,139.23 105.68,140.33 105.62,141.38 
		105.57,142.44 105.51,143.44 105.46,144.43 105.41,145.39 105.35,146.35 105.3,147.27 105.25,148.14 105.19,149.02 105.14,149.84 
		105.08,150.66 105.03,151.43 104.97,152.2 104.92,152.93 104.87,153.64 104.81,154.33 104.76,154.97 104.71,155.59 104.65,156.2 
		104.6,156.78 104.54,157.34 104.49,157.86 104.43,158.37 104.38,158.85 104.33,159.31 104.27,159.77 104.22,160.17 104.16,160.58 
		104.11,160.94 104.06,161.32 104,161.66 103.95,161.98 103.9,162.28 103.84,162.59 103.79,162.86 103.73,163.11 103.68,163.37 
		103.62,163.59 103.57,163.81 103.52,164.01 103.46,164.22 103.41,164.39 103.36,164.57 103.3,164.73 103.25,164.87 103.19,165.02 
		103.14,165.13 103.09,165.28 103.03,165.38 102.98,165.47 102.92,165.57 102.87,165.67 102.82,165.76 102.76,165.83 102.71,165.92 
		102.66,165.98 102.6,166.05 102.55,166.11 102.49,166.15 102.44,166.21 102.39,166.25 102.33,166.28 102.28,166.34 102.22,166.37 
		102.17,166.41 102.12,166.44 102.06,166.46 102.01,166.49 101.95,166.51 101.9,166.53 101.85,166.56 101.79,166.57 101.74,166.59 
		101.68,166.62 101.63,166.62 101.57,166.63 101.52,166.65 101.47,166.65 101.41,166.66 101.36,166.66 101.31,166.67 101.25,166.67 
		101.2,166.69 101.14,166.69 101.09,166.69 101.08,166.69 101.04,166.66 100.99,166.66 100.94,166.66 100.88,166.63 100.83,166.63 
		100.77,166.61 100.72,166.61 100.66,166.58 100.61,166.58 100.56,166.56 100.5,166.53 100.45,166.53 100.4,166.48 100.34,166.46 
		100.29,166.43 100.23,166.38 100.18,166.35 100.13,166.3 100.07,166.25 100.02,166.23 99.96,166.18 99.91,166.1 99.85,166.05 
		99.8,165.95 99.75,165.9 99.69,165.83 99.64,165.73 99.59,165.65 99.53,165.55 99.48,165.42 99.42,165.32 99.37,165.17 
		99.31,165.04 99.26,164.89 99.21,164.72 99.15,164.54 99.1,164.39 99.05,164.21 98.99,163.96 98.94,163.76 98.89,163.51 
		98.83,163.26 98.78,162.98 98.72,162.68 98.67,162.37 98.61,162.02 98.56,161.67 98.51,161.29 98.45,160.91 98.4,160.46 
		98.35,160.03 98.29,159.55 98.24,159.02 98.18,158.49 98.13,157.94 98.08,157.36 98.02,156.71 97.97,156.08 97.91,155.37 
		97.86,154.66 97.81,153.88 97.75,153.08 97.7,152.25 97.64,151.36 97.59,150.46 97.54,149.5 97.48,148.49 97.43,147.43 
		97.37,146.35 97.32,145.24 97.26,144.06 97.21,142.82 97.16,141.56 97.1,140.23 97.05,138.89 97,137.48 96.94,136.05 96.89,134.53 
		96.83,133.02 96.78,131.43 96.73,129.77 96.67,128.11 96.62,126.4 96.56,124.66 96.51,122.82 96.45,121 96.4,119.09 96.35,117.17 
		96.29,115.26 96.24,113.24 96.19,111.23 96.13,109.16 96.08,107.12 96.02,105 95.97,102.89 95.92,100.75 95.86,98.58 95.81,96.39 
		95.75,94.22 95.7,92.03 95.65,89.81 95.59,87.62 95.54,85.4 95.48,83.24 95.43,81.04 95.38,78.9 95.32,76.76 95.27,74.59 
		95.21,72.53 95.16,70.44 95.1,68.42 95.05,66.38 95,64.44 94.94,62.53 94.89,60.66 94.84,58.87 94.78,57.11 94.73,55.4 
		94.67,53.78 94.62,52.22 94.57,50.73 94.51,49.32 94.46,48.01 94.4,46.73 94.35,45.59 94.29,44.51 94.24,43.5 94.19,42.62 
		94.13,41.82 94.08,41.11 94.03,40.51 93.97,39.98 93.92,39.57 93.86,39.27 93.81,39.07 93.75,38.97 93.7,38.97 93.65,39.07 
		93.6,39.27 93.54,39.57 93.49,39.98 93.43,40.51 93.38,41.11 93.33,41.82 93.27,42.62 93.22,43.5 93.16,44.51 93.11,45.59 
		93.06,46.73 93,48.01 92.95,49.32 92.89,50.73 92.84,52.22 92.79,53.78 92.73,55.4 92.68,57.11 92.62,58.87 92.57,60.66 
		92.52,62.53 92.46,64.44 92.41,66.38 92.35,68.42 92.3,70.44 92.25,72.53 92.19,74.59 92.14,76.76 92.08,78.9 92.03,81.04 
		91.98,83.24 91.92,85.4 91.87,87.62 91.82,89.81 91.76,92.03 91.71,94.22 91.65,96.39 91.6,98.58 91.54,100.75 91.49,102.89 
		91.44,105 91.38,107.12 91.33,109.16 91.27,111.23 91.22,113.24 91.17,115.26 91.11,117.17 91.06,119.09 91,121 90.95,122.82 
		90.9,124.66 90.84,126.4 90.79,128.11 90.73,129.77 90.68,131.43 90.63,133.02 90.57,134.53 90.52,136.05 90.46,137.48 
		90.41,138.89 90.36,140.23 90.3,141.56 90.25,142.82 90.19,144.06 90.14,145.24 90.09,146.35 90.03,147.43 89.98,148.49 
		89.92,149.5 89.87,150.46 89.82,151.36 89.76,152.25 89.71,153.08 89.66,153.88 89.6,154.66 89.55,155.37 89.49,156.08 
		89.44,156.71 89.38,157.36 89.33,157.94 89.28,158.49 89.22,159.02 89.17,159.55 89.11,160.03 89.06,160.46 89.01,160.91 
		88.95,161.29 88.9,161.67 88.84,162.02 88.79,162.37 88.74,162.68 88.68,162.98 88.63,163.26 88.57,163.51 88.52,163.76 
		88.47,163.96 88.41,164.21 88.36,164.39 88.31,164.54 88.25,164.72 88.2,164.89 88.14,165.04 88.09,165.17 88.04,165.32 
		87.98,165.42 87.93,165.55 87.87,165.65 87.82,165.73 87.77,165.83 87.71,165.9 87.66,165.95 87.61,166.05 87.55,166.1 
		87.5,166.18 87.44,166.23 87.39,166.25 87.33,166.3 87.28,166.35 87.23,166.38 87.17,166.43 87.12,166.46 87.06,166.48 
		87.01,166.53 86.96,166.53 86.9,166.56 86.85,166.58 86.79,166.58 86.74,166.61 86.69,166.61 86.63,166.63 86.58,166.63 
		86.52,166.66 86.47,166.66 86.42,166.66 86.4,166.67 86.37,166.64 86.32,166.64 86.26,166.64 86.21,166.61 86.15,166.61 
		86.1,166.58 86.05,166.58 85.99,166.55 85.94,166.55 85.88,166.52 85.83,166.48 85.78,166.48 85.72,166.42 85.67,166.39 
		85.61,166.36 85.56,166.3 85.51,166.27 85.45,166.2 85.4,166.14 85.35,166.11 85.29,166.05 85.24,165.96 85.18,165.89 
		85.13,165.77 85.07,165.71 85.02,165.61 84.97,165.49 84.91,165.4 84.86,165.27 84.8,165.12 84.75,164.99 84.7,164.81 
		84.64,164.65 84.59,164.46 84.53,164.25 84.48,164.03 84.43,163.84 84.37,163.63 84.32,163.32 84.27,163.07 84.21,162.76 
		84.16,162.45 84.11,162.1 84.05,161.73 84,161.36 83.94,160.92 83.89,160.49 83.83,160.02 83.78,159.56 83.73,159 83.67,158.47 
		83.62,157.88 83.56,157.23 83.51,156.57 83.46,155.89 83.4,155.18 83.35,154.37 83.3,153.59 83.24,152.72 83.19,151.85 
		83.13,150.89 83.08,149.89 83.02,148.87 82.97,147.78 82.92,146.66 82.86,145.48 82.81,144.24 82.75,142.93 82.7,141.6 
		82.65,140.23 82.59,138.77 82.54,137.25 82.48,135.69 82.43,134.05 82.38,132.4 82.32,130.66 82.27,128.89 82.21,127.03 
		82.16,125.16 82.11,123.2 82.05,121.15 82,119.1 81.95,116.99 81.89,114.85 81.84,112.58 81.78,110.34 81.73,107.98 81.67,105.62 
		81.62,103.26 81.57,100.77 81.51,98.29 81.46,95.74 81.4,93.22 81.35,90.61 81.3,88 81.24,85.36 81.19,82.69 81.14,79.99 
		81.08,77.32 81.03,74.61 80.97,71.88 80.92,69.18 80.86,66.44 80.81,63.77 80.76,61.07 80.7,58.43 80.65,55.79 80.6,53.11 
		80.54,50.57 80.49,47.99 80.43,45.5 80.38,42.98 80.32,40.59 80.27,38.23 80.22,35.93 80.16,33.73 80.11,31.55 80.05,29.44 
		80,27.45 79.95,25.52 79.89,23.69 79.84,21.95 79.79,20.34 79.73,18.75 79.68,17.35 79.62,16.02 79.57,14.77 79.51,13.69 
		79.46,12.69 79.41,11.82 79.35,11.08 79.3,10.42 79.24,9.93 79.19,9.55 79.14,9.31 79.08,9.18 79.03,9.18 78.98,9.31 78.92,9.55 
		78.87,9.93 78.81,10.42 78.76,11.08 78.71,11.82 78.65,12.69 78.6,13.69 78.55,14.77 78.49,16.02 78.44,17.35 78.38,18.75 
		78.33,20.34 78.28,21.95 78.22,23.69 78.17,25.52 78.11,27.45 78.06,29.44 78,31.55 77.95,33.73 77.9,35.93 77.84,38.23 
		77.79,40.59 77.74,42.98 77.68,45.5 77.63,47.99 77.57,50.57 77.52,53.11 77.46,55.79 77.41,58.43 77.36,61.07 77.3,63.77 
		77.25,66.44 77.2,69.18 77.14,71.88 77.09,74.61 77.03,77.32 76.98,79.99 76.93,82.69 76.87,85.36 76.82,88 76.76,90.61 
		76.71,93.22 76.65,95.74 76.6,98.29 76.55,100.77 76.49,103.26 76.44,105.62 76.39,107.98 76.33,110.34 76.28,112.58 76.22,114.85 
		76.17,116.99 76.12,119.1 76.06,121.15 76.01,123.2 75.95,125.16 75.9,127.03 75.85,128.89 75.79,130.66 75.74,132.4 75.68,134.05 
		75.63,135.69 75.58,137.25 75.52,138.77 75.47,140.23 75.41,141.6 75.36,142.93 75.3,144.24 75.25,145.48 75.2,146.66 
		75.14,147.78 75.09,148.87 75.04,149.89 74.98,150.89 74.93,151.85 74.87,152.72 74.82,153.59 74.77,154.37 74.71,155.18 
		74.66,155.89 74.6,156.57 74.55,157.23 74.49,157.88 74.44,158.47 74.39,159 74.33,159.56 74.28,160.02 74.23,160.49 74.17,160.92 
		74.12,161.36 74.06,161.73 74.01,162.1 73.95,162.45 73.9,162.76 73.85,163.07 73.79,163.32 73.74,163.63 73.69,163.84 
		73.63,164.03 73.58,164.25 73.53,164.46 73.47,164.65 73.42,164.81 73.36,164.99 73.31,165.12 73.25,165.27 73.2,165.4 
		73.15,165.49 73.09,165.61 73.04,165.71 72.99,165.77 72.93,165.89 72.88,165.96 72.82,166.05 72.77,166.11 72.72,166.14 
		72.66,166.2 72.61,166.27 72.55,166.3 72.5,166.36 72.45,166.39 72.39,166.42 72.34,166.48 72.28,166.48 72.23,166.52 
		72.18,166.55 72.12,166.55 72.07,166.58 72.01,166.58 71.96,166.61 71.91,166.61 71.85,166.64 71.8,166.64 71.74,166.64 
		71.62,166.65 71.59,166.63 71.53,166.63 71.48,166.61 71.43,166.61 71.37,166.58 71.32,166.58 71.27,166.56 71.21,166.53 
		71.16,166.53 71.1,166.48 71.05,166.46 70.99,166.43 70.94,166.38 70.89,166.35 70.83,166.3 70.78,166.25 70.73,166.23 
		70.67,166.18 70.62,166.1 70.56,166.05 70.51,165.95 70.45,165.9 70.4,165.83 70.35,165.73 70.29,165.65 70.24,165.55 
		70.18,165.42 70.13,165.32 70.08,165.17 70.02,165.04 69.97,164.89 69.92,164.72 69.86,164.54 69.81,164.39 69.75,164.21 
		69.7,163.96 69.65,163.76 69.59,163.51 69.54,163.26 69.49,162.98 69.43,162.68 69.38,162.37 69.32,162.02 69.27,161.67 
		69.22,161.29 69.16,160.91 69.11,160.46 69.05,160.03 69,159.55 68.94,159.02 68.89,158.49 68.84,157.94 68.78,157.36 
		68.73,156.71 68.68,156.08 68.62,155.37 68.57,154.66 68.51,153.88 68.46,153.08 68.41,152.25 68.35,151.36 68.3,150.46 
		68.24,149.5 68.19,148.49 68.14,147.43 68.08,146.35 68.03,145.24 67.97,144.06 67.92,142.82 67.87,141.56 67.81,140.23 
		67.76,138.89 67.7,137.48 67.65,136.05 67.59,134.53 67.54,133.02 67.49,131.43 67.43,129.77 67.38,128.11 67.33,126.4 
		67.27,124.66 67.22,122.82 67.16,121 67.11,119.09 67.06,117.17 67,115.26 66.95,113.24 66.89,111.23 66.84,109.16 66.78,107.12 
		66.73,105 66.68,102.89 66.62,100.75 66.57,98.58 66.52,96.39 66.46,94.22 66.41,92.03 66.35,89.81 66.3,87.62 66.24,85.4 
		66.19,83.24 66.14,81.04 66.08,78.9 66.03,76.76 65.98,74.59 65.92,72.53 65.87,70.44 65.81,68.42 65.76,66.38 65.71,64.44 
		65.65,62.53 65.6,60.66 65.54,58.87 65.49,57.11 65.43,55.4 65.38,53.78 65.33,52.22 65.27,50.73 65.22,49.32 65.17,48.01 
		65.11,46.73 65.06,45.59 65,44.51 64.95,43.5 64.9,42.62 64.84,41.82 64.79,41.11 64.73,40.51 64.68,39.98 64.63,39.57 
		64.57,39.27 64.52,39.07 64.46,38.97 64.41,38.97 64.36,39.07 64.31,39.27 64.25,39.57 64.2,39.98 64.14,40.51 64.09,41.11 
		64.03,41.82 63.98,42.62 63.93,43.5 63.87,44.51 63.82,45.59 63.76,46.73 63.71,48.01 63.66,49.32 63.6,50.73 63.55,52.22 
		63.49,53.78 63.44,55.4 63.39,57.11 63.33,58.87 63.28,60.66 63.22,62.53 63.17,64.44 63.12,66.38 63.06,68.42 63.01,70.44 
		62.95,72.53 62.9,74.59 62.85,76.76 62.79,78.9 62.74,81.04 62.68,83.24 62.63,85.4 62.58,87.62 62.52,89.81 62.47,92.03 
		62.41,94.22 62.36,96.39 62.31,98.58 62.25,100.75 62.2,102.89 62.15,105 62.09,107.12 62.04,109.16 61.98,111.23 61.93,113.24 
		61.87,115.26 61.82,117.17 61.77,119.09 61.71,121 61.66,122.82 61.6,124.66 61.55,126.4 61.5,128.11 61.44,129.77 61.39,131.43 
		61.33,133.02 61.28,134.53 61.23,136.05 61.17,137.48 61.12,138.89 61.06,140.23 61.01,141.56 60.96,142.82 60.9,144.06 
		60.85,145.24 60.79,146.35 60.74,147.43 60.69,148.49 60.63,149.5 60.58,150.46 60.52,151.36 60.47,152.25 60.42,153.08 
		60.36,153.88 60.31,154.66 60.25,155.37 60.2,156.08 60.15,156.71 60.09,157.36 60.04,157.94 59.98,158.49 59.93,159.02 
		59.88,159.55 59.82,160.03 59.77,160.46 59.71,160.91 59.66,161.29 59.61,161.67 59.55,162.02 59.5,162.37 59.44,162.68 
		59.39,162.98 59.34,163.26 59.28,163.51 59.23,163.76 59.17,163.96 59.12,164.21 59.07,164.39 59.01,164.54 58.96,164.72 
		58.91,164.89 58.85,165.04 58.8,165.17 58.75,165.32 58.69,165.42 58.64,165.55 58.58,165.65 58.53,165.73 58.47,165.83 
		58.42,165.9 58.37,165.95 58.31,166.05 58.26,166.1 58.2,166.18 58.15,166.23 58.1,166.25 58.04,166.3 57.99,166.35 57.94,166.38 
		57.88,166.43 57.83,166.46 57.77,166.48 57.72,166.53 57.66,166.53 57.61,166.56 57.56,166.58 57.5,166.58 57.45,166.61 
		57.4,166.61 57.34,166.63 57.29,166.63 57.23,166.66 57.18,166.66 57.12,166.66 57.09,166.69 57.08,166.69 57.02,166.69 
		56.97,166.69 56.92,166.67 56.86,166.67 56.81,166.66 56.75,166.66 56.7,166.65 56.65,166.65 56.59,166.63 56.54,166.62 
		56.48,166.62 56.43,166.59 56.38,166.57 56.32,166.56 56.27,166.53 56.21,166.51 56.16,166.49 56.11,166.46 56.05,166.44 
		56,166.41 55.94,166.37 55.89,166.34 55.84,166.28 55.78,166.25 55.73,166.21 55.67,166.15 55.62,166.11 55.57,166.05 
		55.51,165.98 55.46,165.92 55.4,165.83 55.35,165.76 55.3,165.67 55.24,165.57 55.19,165.47 55.14,165.38 55.08,165.28 
		55.03,165.13 54.97,165.02 54.92,164.87 54.87,164.73 54.81,164.57 54.76,164.39 54.7,164.22 54.65,164.01 54.6,163.81 
		54.54,163.59 54.49,163.37 54.44,163.11 54.38,162.86 54.33,162.59 54.27,162.28 54.22,161.98 54.16,161.66 54.11,161.32 
		54.06,160.94 54,160.58 53.95,160.17 53.89,159.77 53.84,159.31 53.79,158.85 53.73,158.37 53.68,157.86 53.63,157.34 
		53.57,156.78 53.52,156.2 53.46,155.59 53.41,154.97 53.35,154.33 53.3,153.64 53.25,152.93 53.19,152.2 53.14,151.43 
		53.09,150.66 53.03,149.84 52.98,149.02 52.92,148.14 52.87,147.27 52.81,146.35 52.76,145.39 52.71,144.43 52.65,143.44 
		52.6,142.44 52.54,141.38 52.49,140.33 52.44,139.23 52.38,138.12 52.33,137.02 52.28,135.85 52.22,134.69 52.17,133.5 
		52.11,132.32 52.06,131.1 52,129.87 51.95,128.64 51.9,127.39 51.84,126.12 51.79,124.87 51.73,123.6 51.68,122.32 51.63,121.06 
		51.57,119.78 51.52,118.53 51.47,117.26 51.41,116.03 51.36,114.79 51.3,113.54 51.25,112.35 51.19,111.14 51.14,109.97 
		51.09,108.8 51.03,107.68 50.98,106.57 50.93,105.49 50.87,104.46 50.82,103.44 50.76,102.45 50.71,101.52 50.65,100.62 
		50.6,99.76 50.55,98.95 50.49,98.19 50.44,97.45 50.38,96.8 50.33,96.17 50.28,95.59 50.22,95.08 50.17,94.61 50.12,94.21 
		50.06,93.86 50.01,93.55 49.95,93.32 49.9,93.14 49.84,93.03 49.79,92.97 49.74,92.97 49.69,93.03 49.63,93.14 49.58,93.32 
		49.52,93.55 49.47,93.86 49.42,94.21 49.36,94.61 49.31,95.08 49.25,95.59 49.2,96.17 49.14,96.8 49.09,97.45 49.04,98.19 
		48.98,98.95 48.93,99.76 48.88,100.62 48.82,101.52 48.77,102.45 48.71,103.44 48.66,104.46 48.61,105.49 48.55,106.57 
		48.5,107.68 48.44,108.8 48.39,109.97 48.34,111.14 48.28,112.35 48.23,113.54 48.17,114.79 48.12,116.03 48.07,117.26 
		48.01,118.53 47.96,119.78 47.9,121.06 47.85,122.32 47.79,123.6 47.74,124.87 47.69,126.12 47.63,127.39 47.58,128.64 
		47.53,129.87 47.47,131.1 47.42,132.32 47.36,133.5 47.31,134.69 47.26,135.85 47.2,137.02 47.15,138.12 47.09,139.23 
		47.04,140.33 46.98,141.38 46.93,142.44 46.88,143.44 46.82,144.43 46.77,145.39 46.72,146.35 46.66,147.27 46.61,148.14 
		46.55,149.02 46.5,149.84 46.44,150.66 46.39,151.43 46.34,152.2 46.28,152.93 46.23,153.64 46.18,154.33 46.12,154.97 
		46.07,155.59 46.01,156.2 45.96,156.78 45.91,157.34 45.85,157.86 45.8,158.37 45.74,158.85 45.69,159.31 45.63,159.77 
		45.58,160.17 45.53,160.58 45.47,160.94 45.42,161.32 45.37,161.66 45.31,161.98 45.26,162.28 45.2,162.59 45.15,162.86 
		45.1,163.11 45.04,163.37 44.99,163.59 44.93,163.81 44.88,164.01 44.82,164.22 44.77,164.39 44.72,164.57 44.66,164.73 
		44.61,164.87 44.56,165.02 44.5,165.13 44.45,165.28 44.39,165.38 44.34,165.47 44.29,165.57 44.23,165.67 44.18,165.76 
		44.13,165.83 44.07,165.92 44.02,165.98 43.96,166.05 43.91,166.11 43.86,166.15 43.8,166.21 43.75,166.25 43.69,166.28 
		43.64,166.34 43.58,166.37 43.53,166.41 43.48,166.44 43.42,166.46 43.37,166.49 43.32,166.51 43.26,166.53 43.21,166.56 
		43.15,166.57 43.1,166.59 43.05,166.62 42.99,166.62 42.94,166.63 42.88,166.65 42.83,166.65 42.78,166.66 42.72,166.66 
		42.67,166.67 42.61,166.67 42.56,166.69 42.51,166.69 42.45,166.69 42.4,166.72 42.34,166.72 42.29,166.72 42.29,166.72 
		42.24,166.71 42.19,166.71 42.13,166.71 42.08,166.71 42.03,166.71 41.97,166.71 41.92,166.7 41.87,166.7 41.81,166.7 
		41.76,166.69 41.7,166.68 41.65,166.68 41.6,166.67 41.54,166.66 41.49,166.66 41.43,166.65 41.38,166.64 41.32,166.63 
		41.27,166.62 41.22,166.61 41.16,166.59 41.11,166.58 41.06,166.57 41,166.55 40.95,166.54 40.89,166.52 40.84,166.5 40.79,166.48 
		40.73,166.45 40.68,166.43 40.62,166.4 40.57,166.37 40.51,166.34 40.46,166.31 40.41,166.28 40.36,166.23 40.3,166.19 
		40.25,166.15 40.19,166.1 40.14,166.05 40.09,166 40.03,165.94 39.98,165.88 39.92,165.81 39.87,165.75 39.82,165.68 39.76,165.6 
		39.71,165.52 39.65,165.43 39.6,165.33 39.55,165.24 39.49,165.14 39.44,165.03 39.38,164.91 39.33,164.8 39.27,164.67 
		39.22,164.54 39.17,164.4 39.11,164.26 39.06,164.11 39.01,163.95 38.95,163.78 38.9,163.61 38.84,163.43 38.79,163.23 
		38.74,163.04 38.68,162.84 38.63,162.62 38.57,162.4 38.52,162.17 38.47,161.93 38.41,161.68 38.36,161.43 38.3,161.17 
		38.25,160.89 38.2,160.62 38.14,160.33 38.09,160.03 38.03,159.73 37.98,159.42 37.93,159.1 37.87,158.77 37.82,158.44 
		37.76,158.09 37.71,157.75 37.66,157.4 37.6,157.03 37.55,156.67 37.49,156.29 37.44,155.92 37.39,155.54 37.33,155.16 
		37.28,154.77 37.22,154.37 37.17,153.98 37.11,153.58 37.06,153.19 37.01,152.79 36.95,152.39 36.9,151.99 36.85,151.59 
		36.79,151.2 36.74,150.81 36.68,150.42 36.63,150.03 36.58,149.65 36.52,149.27 36.47,148.91 36.41,148.54 36.36,148.18 
		36.31,147.84 36.25,147.5 36.2,147.17 36.14,146.86 36.09,146.54 36.04,146.25 35.98,145.97 35.93,145.7 35.87,145.44 
		35.82,145.21 35.76,144.97 35.71,144.77 35.66,144.57 35.6,144.39 35.55,144.23 35.5,144.08 35.44,143.95 35.39,143.84 
		35.33,143.75 35.28,143.68 35.23,143.62 35.17,143.58 35.12,143.57 35.07,143.57 35.01,143.58 34.96,143.62 34.9,143.68 
		34.85,143.75 34.8,143.84 34.74,143.95 34.69,144.08 34.64,144.23 34.58,144.39 34.53,144.57 34.47,144.77 34.42,144.97 
		34.36,145.21 34.31,145.44 34.26,145.7 34.2,145.97 34.15,146.25 34.09,146.54 34.04,146.86 33.99,147.17 33.93,147.5 
		33.88,147.84 33.83,148.18 33.77,148.54 33.72,148.91 33.66,149.27 33.61,149.65 33.55,150.03 33.5,150.42 33.45,150.81 
		33.39,151.2 33.34,151.59 33.28,151.99 33.23,152.39 33.18,152.79 33.12,153.19 33.07,153.58 33.01,153.98 32.96,154.37 
		32.91,154.77 32.85,155.16 32.8,155.54 32.74,155.92 32.69,156.29 32.64,156.67 32.58,157.03 32.53,157.4 32.48,157.75 
		32.42,158.09 32.37,158.44 32.31,158.77 32.26,159.1 32.2,159.42 32.15,159.73 32.1,160.03 32.04,160.33 31.99,160.62 
		31.93,160.89 31.88,161.17 31.83,161.43 31.77,161.68 31.72,161.93 31.67,162.17 31.61,162.4 31.56,162.62 31.5,162.84 
		31.45,163.04 31.39,163.23 31.34,163.43 31.29,163.61 31.23,163.78 31.18,163.95 31.12,164.11 31.07,164.26 31.02,164.4 
		30.96,164.54 30.91,164.67 30.85,164.8 30.8,164.91 30.75,165.03 30.69,165.14 30.64,165.24 30.58,165.33 30.53,165.43 
		30.48,165.52 30.42,165.6 30.37,165.68 30.32,165.75 30.26,165.81 30.21,165.88 30.15,165.94 30.1,166 30.04,166.05 29.99,166.1 
		29.94,166.15 29.88,166.19 29.83,166.23 29.77,166.28 29.72,166.31 29.67,166.34 29.62,166.37 29.56,166.4 29.51,166.43 
		29.45,166.45 29.4,166.48 29.34,166.5 29.29,166.52 29.24,166.54 29.18,166.55 29.13,166.57 29.08,166.58 29.02,166.59 
		28.97,166.61 28.91,166.62 28.86,166.63 28.8,166.64 28.75,166.65 28.7,166.66 28.64,166.66 28.59,166.67 28.53,166.68 
		28.48,166.68 28.43,166.69 28.37,166.7 28.32,166.7 28.27,166.7 28.21,166.71 28.16,166.71 28.1,166.71 28.05,166.71 27.99,166.71 
		27.94,166.71 27.89,166.72 27.83,166.72 27.78,166.72 27.73,166.73 27.67,166.73 27.62,166.73 27.56,166.73 27.51,166.73 
		27.46,166.73 41.7,166.73 41.75,166.73 41.8,166.73 41.86,166.73 41.91,166.73 41.97,166.73 42.02,166.73 42.07,166.73 
		42.13,166.73 42.73,166.73 42.78,166.73 42.84,166.73 42.89,166.73 42.95,166.73 43,166.73 43.05,166.73 43.11,166.73 
		43.16,166.73 56.37,166.73 56.42,166.73 56.48,166.73 56.53,166.73 56.59,166.73 56.64,166.73 56.69,166.73 56.75,166.73 
		56.8,166.73 57.4,166.73 57.46,166.73 57.51,166.73 57.56,166.73 57.62,166.73 57.67,166.73 57.73,166.73 57.78,166.73 
		57.84,166.73 71.04,166.73 71.09,166.73 71.15,166.73 71.2,166.73 71.26,166.73 71.31,166.73 71.37,166.73 71.42,166.73 
		72.02,166.73 72.08,166.73 72.13,166.73 72.18,166.73 72.24,166.73 72.29,166.73 72.34,166.73 72.4,166.73 72.45,166.73 
		85.66,166.73 85.71,166.73 85.77,166.73 85.82,166.73 85.88,166.73 85.93,166.73 85.98,166.73 86.04,166.73 86.09,166.73 
		86.69,166.73 86.75,166.73 86.8,166.73 86.86,166.73 86.91,166.73 86.96,166.73 87.02,166.73 87.07,166.73 87.13,166.73 
		100.33,166.73 100.39,166.73 100.44,166.73 100.5,166.73 100.55,166.73 100.6,166.73 100.66,166.73 100.71,166.73 100.76,166.73 
		101.37,166.73 101.42,166.73 101.47,166.73 101.53,166.73 101.58,166.73 101.64,166.73 101.69,166.73 101.75,166.73 101.8,166.73 
		115.01,166.73 115.06,166.73 115.11,166.73 115.17,166.73 115.22,166.73 115.28,166.73 115.33,166.73 115.38,166.73 115.44,166.73 
		116.04,166.73 116.09,166.73 116.15,166.73 116.2,166.73 116.26,166.73 116.31,166.73 116.36,166.73 116.42,166.73 116.47,166.73 
		130.71,166.73 	"/>
	
		<linearGradient id="SVGID_00000090274240276532079030000013660244729178558906_" gradientUnits="userSpaceOnUse" x1="71.21" y1="115.9348" x2="174.47" y2="115.9348" gradientTransform="matrix(1 0 0 -1 0 203.8898)">
		<stop  offset="0" style="stop-color:#D69AC5"/>
		<stop  offset="1" style="stop-color:#E770A8"/>
	</linearGradient>
	
		<polygon style="opacity:0.6;fill:url(#SVGID_00000090274240276532079030000013660244729178558906_);enable-background:new    ;" points="
		174.41,166.73 174.36,166.73 174.3,166.73 174.25,166.73 174.2,166.73 174.14,166.72 174.09,166.72 174.03,166.72 173.98,166.71 
		173.93,166.71 173.87,166.71 173.82,166.71 173.76,166.71 173.71,166.71 173.66,166.7 173.6,166.7 173.55,166.7 173.49,166.69 
		173.44,166.68 173.39,166.68 173.33,166.67 173.28,166.66 173.23,166.66 173.17,166.65 173.12,166.64 173.06,166.63 173.01,166.62 
		172.95,166.61 172.9,166.59 172.85,166.58 172.79,166.57 172.74,166.55 172.68,166.54 172.63,166.52 172.58,166.5 172.52,166.48 
		172.47,166.45 172.41,166.43 172.36,166.4 172.31,166.37 172.25,166.34 172.2,166.31 172.15,166.28 172.09,166.23 172.04,166.19 
		171.99,166.15 171.93,166.1 171.88,166.05 171.82,166 171.77,165.94 171.71,165.88 171.66,165.81 171.61,165.75 171.55,165.68 
		171.5,165.6 171.44,165.52 171.39,165.43 171.34,165.33 171.28,165.24 171.23,165.14 171.18,165.03 171.12,164.91 171.07,164.8 
		171.01,164.67 170.96,164.54 170.9,164.4 170.85,164.26 170.8,164.11 170.74,163.95 170.69,163.78 170.64,163.61 170.58,163.43 
		170.53,163.23 170.47,163.04 170.42,162.84 170.36,162.62 170.31,162.4 170.26,162.17 170.2,161.93 170.15,161.68 170.09,161.43 
		170.04,161.17 169.99,160.89 169.93,160.62 169.88,160.33 169.83,160.03 169.77,159.73 169.72,159.42 169.66,159.1 169.61,158.77 
		169.55,158.44 169.5,158.09 169.45,157.75 169.39,157.4 169.34,157.03 169.28,156.67 169.23,156.29 169.18,155.92 169.12,155.54 
		169.07,155.16 169.02,154.77 168.96,154.37 168.91,153.98 168.85,153.58 168.8,153.19 168.74,152.79 168.69,152.39 168.64,151.99 
		168.58,151.59 168.53,151.2 168.48,150.81 168.42,150.42 168.37,150.03 168.31,149.65 168.26,149.27 168.2,148.91 168.15,148.54 
		168.1,148.18 168.04,147.84 167.99,147.5 167.93,147.17 167.88,146.86 167.83,146.54 167.77,146.25 167.72,145.97 167.67,145.7 
		167.61,145.44 167.56,145.21 167.5,144.97 167.45,144.77 167.39,144.57 167.34,144.39 167.29,144.23 167.23,144.08 167.18,143.95 
		167.12,143.84 167.07,143.75 167.02,143.68 166.96,143.62 166.91,143.58 166.85,143.57 166.8,143.57 166.75,143.58 166.69,143.62 
		166.64,143.68 166.59,143.75 166.53,143.84 166.48,143.95 166.43,144.08 166.37,144.23 166.32,144.39 166.26,144.57 166.21,144.77 
		166.16,144.97 166.1,145.21 166.05,145.44 165.99,145.7 165.94,145.97 165.88,146.25 165.83,146.54 165.78,146.86 165.72,147.17 
		165.67,147.5 165.62,147.84 165.56,148.18 165.51,148.54 165.45,148.91 165.4,149.27 165.34,149.65 165.29,150.03 165.24,150.42 
		165.18,150.81 165.13,151.2 165.08,151.59 165.02,151.99 164.97,152.39 164.91,152.79 164.86,153.19 164.81,153.58 164.75,153.98 
		164.7,154.37 164.64,154.77 164.59,155.16 164.53,155.54 164.48,155.92 164.43,156.29 164.37,156.67 164.32,157.03 164.27,157.4 
		164.21,157.75 164.16,158.09 164.1,158.44 164.05,158.77 163.99,159.1 163.94,159.42 163.89,159.73 163.83,160.03 163.78,160.33 
		163.73,160.62 163.67,160.89 163.62,161.17 163.56,161.43 163.51,161.68 163.46,161.93 163.4,162.17 163.35,162.4 163.29,162.62 
		163.24,162.84 163.18,163.04 163.13,163.23 163.08,163.43 163.02,163.61 162.97,163.78 162.92,163.95 162.86,164.11 162.81,164.26 
		162.75,164.4 162.7,164.54 162.65,164.67 162.59,164.8 162.54,164.91 162.48,165.03 162.43,165.14 162.37,165.24 162.32,165.33 
		162.27,165.43 162.21,165.52 162.16,165.6 162.11,165.68 162.05,165.75 162,165.81 161.94,165.88 161.89,165.94 161.83,166 
		161.78,166.05 161.73,166.1 161.67,166.15 161.62,166.19 161.57,166.23 161.51,166.28 161.46,166.31 161.41,166.34 161.35,166.37 
		161.3,166.4 161.24,166.43 161.19,166.45 161.13,166.48 161.08,166.5 161.03,166.52 160.97,166.54 160.92,166.55 160.87,166.57 
		160.81,166.58 160.76,166.59 160.7,166.61 160.65,166.62 160.6,166.63 160.54,166.64 160.49,166.65 160.43,166.66 160.38,166.66 
		160.33,166.67 160.27,166.68 160.22,166.68 160.16,166.69 160.11,166.7 160.06,166.7 160,166.7 159.95,166.71 159.89,166.71 
		159.84,166.71 159.79,166.71 159.73,166.71 159.68,166.71 159.63,166.72 159.63,166.72 159.58,166.72 159.52,166.72 159.47,166.69 
		159.42,166.69 159.36,166.69 159.31,166.67 159.25,166.67 159.2,166.66 159.15,166.66 159.09,166.65 159.04,166.65 158.98,166.63 
		158.93,166.62 158.87,166.62 158.82,166.59 158.77,166.57 158.71,166.56 158.66,166.53 158.61,166.51 158.55,166.49 158.5,166.46 
		158.44,166.44 158.39,166.41 158.34,166.37 158.28,166.34 158.23,166.28 158.17,166.25 158.12,166.21 158.06,166.15 158.01,166.11 
		157.96,166.05 157.9,165.98 157.85,165.92 157.8,165.83 157.74,165.76 157.69,165.67 157.63,165.57 157.58,165.47 157.53,165.38 
		157.47,165.28 157.42,165.13 157.37,165.02 157.31,164.87 157.26,164.73 157.2,164.57 157.15,164.39 157.1,164.22 157.04,164.01 
		156.99,163.81 156.93,163.59 156.88,163.37 156.82,163.11 156.77,162.86 156.72,162.59 156.66,162.28 156.61,161.98 156.56,161.66 
		156.5,161.32 156.45,160.94 156.39,160.58 156.34,160.17 156.29,159.77 156.23,159.31 156.18,158.85 156.12,158.37 156.07,157.86 
		156.02,157.34 155.96,156.78 155.91,156.2 155.85,155.59 155.8,154.97 155.75,154.33 155.69,153.64 155.64,152.93 155.58,152.2 
		155.53,151.43 155.48,150.66 155.42,149.84 155.37,149.02 155.31,148.14 155.26,147.27 155.21,146.35 155.15,145.39 155.1,144.43 
		155.04,143.44 154.99,142.44 154.94,141.38 154.88,140.33 154.83,139.23 154.77,138.12 154.72,137.02 154.66,135.85 154.61,134.69 
		154.56,133.5 154.5,132.32 154.45,131.1 154.4,129.87 154.34,128.64 154.29,127.39 154.23,126.12 154.18,124.87 154.13,123.6 
		154.07,122.32 154.02,121.06 153.96,119.78 153.91,118.53 153.86,117.26 153.8,116.03 153.75,114.79 153.69,113.54 153.64,112.35 
		153.59,111.14 153.53,109.97 153.48,108.8 153.42,107.68 153.37,106.57 153.31,105.49 153.26,104.46 153.21,103.44 153.15,102.45 
		153.1,101.52 153.05,100.62 152.99,99.76 152.94,98.95 152.88,98.19 152.83,97.45 152.78,96.8 152.72,96.17 152.67,95.59 
		152.61,95.08 152.56,94.61 152.51,94.21 152.45,93.86 152.4,93.55 152.34,93.32 152.29,93.14 152.24,93.03 152.18,92.97 
		152.13,92.97 152.08,93.03 152.02,93.14 151.97,93.32 151.91,93.55 151.86,93.86 151.81,94.21 151.75,94.61 151.7,95.08 
		151.64,95.59 151.59,96.17 151.54,96.8 151.48,97.45 151.43,98.19 151.38,98.95 151.32,99.76 151.27,100.62 151.21,101.52 
		151.16,102.45 151.1,103.44 151.05,104.46 151,105.49 150.94,106.57 150.89,107.68 150.83,108.8 150.78,109.97 150.73,111.14 
		150.67,112.35 150.62,113.54 150.56,114.79 150.51,116.03 150.46,117.26 150.4,118.53 150.35,119.78 150.29,121.06 150.24,122.32 
		150.19,123.6 150.13,124.87 150.08,126.12 150.03,127.39 149.97,128.64 149.92,129.87 149.86,131.1 149.81,132.32 149.75,133.5 
		149.7,134.69 149.65,135.85 149.59,137.02 149.54,138.12 149.48,139.23 149.43,140.33 149.38,141.38 149.32,142.44 149.27,143.44 
		149.22,144.43 149.16,145.39 149.11,146.35 149.05,147.27 149,148.14 148.94,149.02 148.89,149.84 148.84,150.66 148.78,151.43 
		148.73,152.2 148.68,152.93 148.62,153.64 148.57,154.33 148.51,154.97 148.46,155.59 148.4,156.2 148.35,156.78 148.3,157.34 
		148.24,157.86 148.19,158.37 148.13,158.85 148.08,159.31 148.03,159.77 147.97,160.17 147.92,160.58 147.87,160.94 147.81,161.32 
		147.76,161.66 147.7,161.98 147.65,162.28 147.59,162.59 147.54,162.86 147.49,163.11 147.43,163.37 147.38,163.59 147.32,163.81 
		147.27,164.01 147.22,164.22 147.16,164.39 147.11,164.57 147.05,164.73 147,164.87 146.95,165.02 146.89,165.13 146.84,165.28 
		146.78,165.38 146.73,165.47 146.68,165.57 146.63,165.67 146.57,165.76 146.52,165.83 146.46,165.92 146.41,165.98 146.35,166.05 
		146.3,166.11 146.25,166.15 146.19,166.21 146.14,166.25 146.08,166.28 146.03,166.34 145.98,166.37 145.92,166.41 145.87,166.44 
		145.82,166.46 145.76,166.49 145.71,166.51 145.65,166.53 145.6,166.56 145.54,166.57 145.49,166.59 145.44,166.62 145.38,166.62 
		145.33,166.63 145.28,166.65 145.22,166.65 145.17,166.66 145.11,166.66 145.06,166.67 145.01,166.67 144.95,166.69 144.9,166.69 
		144.84,166.69 144.84,166.69 144.8,166.66 144.74,166.66 144.69,166.66 144.63,166.63 144.58,166.63 144.53,166.61 144.47,166.61 
		144.42,166.58 144.36,166.58 144.31,166.56 144.26,166.53 144.2,166.53 144.15,166.48 144.09,166.46 144.04,166.43 143.99,166.38 
		143.93,166.35 143.88,166.3 143.82,166.25 143.77,166.23 143.72,166.18 143.66,166.1 143.61,166.05 143.56,165.95 143.5,165.9 
		143.45,165.83 143.39,165.73 143.34,165.65 143.28,165.55 143.23,165.42 143.18,165.32 143.12,165.17 143.07,165.04 143.01,164.89 
		142.96,164.72 142.91,164.54 142.86,164.39 142.8,164.21 142.75,163.96 142.69,163.76 142.64,163.51 142.58,163.26 142.53,162.98 
		142.48,162.68 142.42,162.37 142.37,162.02 142.32,161.67 142.26,161.29 142.21,160.91 142.15,160.46 142.1,160.03 142.04,159.55 
		141.99,159.02 141.94,158.49 141.88,157.94 141.83,157.36 141.77,156.71 141.72,156.08 141.67,155.37 141.61,154.66 141.56,153.88 
		141.51,153.08 141.45,152.25 141.4,151.36 141.34,150.46 141.29,149.5 141.23,148.49 141.18,147.43 141.13,146.35 141.07,145.24 
		141.02,144.06 140.97,142.82 140.91,141.56 140.86,140.23 140.8,138.89 140.75,137.48 140.7,136.05 140.64,134.53 140.59,133.02 
		140.53,131.43 140.48,129.77 140.42,128.11 140.37,126.4 140.32,124.66 140.26,122.82 140.21,121 140.16,119.09 140.1,117.17 
		140.05,115.26 139.99,113.24 139.94,111.23 139.88,109.16 139.83,107.12 139.78,105 139.72,102.89 139.67,100.75 139.61,98.58 
		139.56,96.39 139.51,94.22 139.45,92.03 139.4,89.81 139.35,87.62 139.29,85.4 139.24,83.24 139.18,81.04 139.13,78.9 
		139.07,76.76 139.02,74.59 138.97,72.53 138.91,70.44 138.86,68.42 138.81,66.38 138.75,64.44 138.7,62.53 138.64,60.66 
		138.59,58.87 138.54,57.11 138.48,55.4 138.43,53.78 138.37,52.22 138.32,50.73 138.26,49.32 138.21,48.01 138.16,46.73 
		138.1,45.59 138.05,44.51 138,43.5 137.94,42.62 137.89,41.82 137.83,41.11 137.78,40.51 137.72,39.98 137.67,39.57 137.62,39.27 
		137.56,39.07 137.51,38.97 137.46,38.97 137.4,39.07 137.35,39.27 137.3,39.57 137.24,39.98 137.19,40.51 137.13,41.11 
		137.08,41.82 137.02,42.62 136.97,43.5 136.92,44.51 136.86,45.59 136.81,46.73 136.76,48.01 136.7,49.32 136.65,50.73 
		136.59,52.22 136.54,53.78 136.49,55.4 136.43,57.11 136.38,58.87 136.32,60.66 136.27,62.53 136.22,64.44 136.16,66.38 
		136.11,68.42 136.05,70.44 136,72.53 135.95,74.59 135.89,76.76 135.84,78.9 135.78,81.04 135.73,83.24 135.68,85.4 135.62,87.62 
		135.57,89.81 135.51,92.03 135.46,94.22 135.41,96.39 135.35,98.58 135.3,100.75 135.24,102.89 135.19,105 135.14,107.12 
		135.08,109.16 135.03,111.23 134.97,113.24 134.92,115.26 134.86,117.17 134.81,119.09 134.76,121 134.7,122.82 134.65,124.66 
		134.6,126.4 134.54,128.11 134.49,129.77 134.43,131.43 134.38,133.02 134.33,134.53 134.27,136.05 134.22,137.48 134.16,138.89 
		134.11,140.23 134.06,141.56 134,142.82 133.95,144.06 133.89,145.24 133.84,146.35 133.79,147.43 133.73,148.49 133.68,149.5 
		133.62,150.46 133.57,151.36 133.51,152.25 133.46,153.08 133.41,153.88 133.35,154.66 133.3,155.37 133.25,156.08 133.19,156.71 
		133.14,157.36 133.08,157.94 133.03,158.49 132.98,159.02 132.92,159.55 132.87,160.03 132.81,160.46 132.76,160.91 132.7,161.29 
		132.65,161.67 132.6,162.02 132.54,162.37 132.49,162.68 132.44,162.98 132.38,163.26 132.33,163.51 132.27,163.76 132.22,163.96 
		132.17,164.21 132.11,164.39 132.06,164.54 132.01,164.72 131.95,164.89 131.9,165.04 131.84,165.17 131.79,165.32 131.74,165.42 
		131.68,165.55 131.63,165.65 131.58,165.73 131.52,165.83 131.47,165.9 131.41,165.95 131.36,166.05 131.3,166.1 131.25,166.18 
		131.2,166.23 131.14,166.25 131.09,166.3 131.03,166.35 130.98,166.38 130.93,166.43 130.87,166.46 130.82,166.48 130.76,166.53 
		130.71,166.53 130.66,166.56 130.6,166.58 130.55,166.58 130.49,166.61 130.44,166.61 130.39,166.63 130.33,166.63 130.28,166.66 
		130.23,166.66 130.17,166.66 130.15,166.67 130.12,166.64 130.07,166.64 130.02,166.64 129.96,166.61 129.91,166.61 129.85,166.58 
		129.8,166.58 129.75,166.55 129.69,166.55 129.64,166.52 129.58,166.48 129.53,166.48 129.48,166.42 129.42,166.39 129.37,166.36 
		129.31,166.3 129.26,166.27 129.21,166.2 129.15,166.14 129.1,166.11 129.04,166.05 128.99,165.96 128.94,165.89 128.88,165.77 
		128.83,165.71 128.77,165.61 128.72,165.49 128.67,165.4 128.61,165.27 128.56,165.12 128.5,164.99 128.45,164.81 128.39,164.65 
		128.34,164.46 128.29,164.25 128.23,164.03 128.18,163.84 128.13,163.63 128.07,163.32 128.02,163.07 127.97,162.76 127.91,162.45 
		127.86,162.1 127.8,161.73 127.75,161.36 127.7,160.92 127.64,160.49 127.59,160.02 127.53,159.56 127.48,159 127.43,158.47 
		127.37,157.88 127.32,157.23 127.27,156.57 127.21,155.89 127.16,155.18 127.1,154.37 127.05,153.59 126.99,152.72 126.94,151.85 
		126.89,150.89 126.83,149.89 126.78,148.87 126.72,147.78 126.67,146.66 126.62,145.48 126.56,144.24 126.51,142.93 126.45,141.6 
		126.4,140.23 126.35,138.77 126.29,137.25 126.24,135.69 126.18,134.05 126.13,132.4 126.08,130.66 126.02,128.89 125.97,127.03 
		125.92,125.16 125.86,123.2 125.81,121.15 125.75,119.1 125.7,116.99 125.64,114.85 125.59,112.58 125.54,110.34 125.48,107.98 
		125.43,105.62 125.37,103.26 125.32,100.77 125.27,98.29 125.21,95.74 125.16,93.22 125.1,90.61 125.05,88 125,85.36 124.94,82.69 
		124.89,79.99 124.83,77.32 124.78,74.61 124.73,71.88 124.67,69.18 124.62,66.44 124.56,63.77 124.51,61.07 124.46,58.43 
		124.4,55.79 124.35,53.11 124.29,50.57 124.24,47.99 124.19,45.5 124.13,42.98 124.08,40.59 124.02,38.23 123.97,35.93 
		123.92,33.73 123.86,31.55 123.81,29.44 123.76,27.45 123.7,25.52 123.65,23.69 123.59,21.95 123.54,20.34 123.48,18.75 
		123.43,17.35 123.38,16.02 123.32,14.77 123.27,13.69 123.21,12.69 123.16,11.82 123.11,11.08 123.05,10.42 123,9.93 122.94,9.55 
		122.89,9.31 122.84,9.18 122.78,9.18 122.73,9.31 122.68,9.55 122.62,9.93 122.57,10.42 122.52,11.08 122.46,11.82 122.41,12.69 
		122.35,13.69 122.3,14.77 122.24,16.02 122.19,17.35 122.14,18.75 122.08,20.34 122.03,21.95 121.97,23.69 121.92,25.52 
		121.87,27.45 121.81,29.44 121.76,31.55 121.71,33.73 121.65,35.93 121.6,38.23 121.54,40.59 121.49,42.98 121.43,45.5 
		121.38,47.99 121.33,50.57 121.27,53.11 121.22,55.79 121.16,58.43 121.11,61.07 121.06,63.77 121,66.44 120.95,69.18 120.9,71.88 
		120.84,74.61 120.79,77.32 120.73,79.99 120.68,82.69 120.62,85.36 120.57,88 120.52,90.61 120.46,93.22 120.41,95.74 
		120.36,98.29 120.3,100.77 120.25,103.26 120.19,105.62 120.14,107.98 120.08,110.34 120.03,112.58 119.98,114.85 119.92,116.99 
		119.87,119.1 119.81,121.15 119.76,123.2 119.71,125.16 119.65,127.03 119.6,128.89 119.55,130.66 119.49,132.4 119.44,134.05 
		119.38,135.69 119.33,137.25 119.27,138.77 119.22,140.23 119.17,141.6 119.11,142.93 119.06,144.24 119.01,145.48 118.95,146.66 
		118.9,147.78 118.84,148.87 118.79,149.89 118.74,150.89 118.68,151.85 118.63,152.72 118.57,153.59 118.52,154.37 118.46,155.18 
		118.41,155.89 118.36,156.57 118.3,157.23 118.25,157.88 118.2,158.47 118.14,159 118.09,159.56 118.03,160.02 117.98,160.49 
		117.92,160.92 117.87,161.36 117.82,161.73 117.76,162.1 117.71,162.45 117.65,162.76 117.6,163.07 117.55,163.32 117.49,163.63 
		117.44,163.84 117.39,164.03 117.33,164.25 117.28,164.46 117.22,164.65 117.17,164.81 117.12,164.99 117.06,165.12 117.01,165.27 
		116.96,165.4 116.9,165.49 116.85,165.61 116.79,165.71 116.74,165.77 116.69,165.89 116.63,165.96 116.58,166.05 116.52,166.11 
		116.47,166.14 116.41,166.2 116.36,166.27 116.31,166.3 116.25,166.36 116.2,166.39 116.15,166.42 116.09,166.48 116.04,166.48 
		115.98,166.52 115.93,166.55 115.87,166.55 115.82,166.58 115.77,166.58 115.71,166.61 115.66,166.61 115.61,166.64 115.55,166.64 
		115.5,166.64 115.37,166.65 115.34,166.63 115.29,166.63 115.23,166.61 115.18,166.61 115.13,166.58 115.07,166.58 115.02,166.56 
		114.96,166.53 114.91,166.53 114.86,166.48 114.8,166.46 114.75,166.43 114.69,166.38 114.64,166.35 114.59,166.3 114.53,166.25 
		114.48,166.23 114.42,166.18 114.37,166.1 114.32,166.05 114.26,165.95 114.21,165.9 114.15,165.83 114.1,165.73 114.05,165.65 
		113.99,165.55 113.94,165.42 113.89,165.32 113.83,165.17 113.78,165.04 113.72,164.89 113.67,164.72 113.61,164.54 113.56,164.39 
		113.51,164.21 113.46,163.96 113.4,163.76 113.35,163.51 113.29,163.26 113.24,162.98 113.19,162.68 113.13,162.37 113.08,162.02 
		113.02,161.67 112.97,161.29 112.91,160.91 112.86,160.46 112.81,160.03 112.75,159.55 112.7,159.02 112.65,158.49 112.59,157.94 
		112.54,157.36 112.48,156.71 112.43,156.08 112.37,155.37 112.32,154.66 112.27,153.88 112.21,153.08 112.16,152.25 112.1,151.36 
		112.05,150.46 112,149.5 111.94,148.49 111.89,147.43 111.84,146.35 111.78,145.24 111.73,144.06 111.67,142.82 111.62,141.56 
		111.56,140.23 111.51,138.89 111.46,137.48 111.4,136.05 111.35,134.53 111.3,133.02 111.24,131.43 111.19,129.77 111.13,128.11 
		111.08,126.4 111.03,124.66 110.97,122.82 110.92,121 110.86,119.09 110.81,117.17 110.75,115.26 110.7,113.24 110.65,111.23 
		110.59,109.16 110.54,107.12 110.49,105 110.43,102.89 110.38,100.75 110.32,98.58 110.27,96.39 110.21,94.22 110.16,92.03 
		110.11,89.81 110.05,87.62 110,85.4 109.94,83.24 109.89,81.04 109.84,78.9 109.78,76.76 109.73,74.59 109.68,72.53 109.62,70.44 
		109.57,68.42 109.51,66.38 109.46,64.44 109.4,62.53 109.35,60.66 109.3,58.87 109.24,57.11 109.19,55.4 109.14,53.78 
		109.08,52.22 109.03,50.73 108.97,49.32 108.92,48.01 108.86,46.73 108.81,45.59 108.76,44.51 108.7,43.5 108.65,42.62 
		108.59,41.82 108.54,41.11 108.49,40.51 108.43,39.98 108.38,39.57 108.33,39.27 108.27,39.07 108.22,38.97 108.17,38.97 
		108.11,39.07 108.06,39.27 108,39.57 107.95,39.98 107.9,40.51 107.84,41.11 107.79,41.82 107.73,42.62 107.68,43.5 107.63,44.51 
		107.57,45.59 107.52,46.73 107.46,48.01 107.41,49.32 107.35,50.73 107.3,52.22 107.25,53.78 107.19,55.4 107.14,57.11 
		107.09,58.87 107.03,60.66 106.98,62.53 106.92,64.44 106.87,66.38 106.82,68.42 106.76,70.44 106.71,72.53 106.65,74.59 
		106.6,76.76 106.55,78.9 106.49,81.04 106.44,83.24 106.38,85.4 106.33,87.62 106.28,89.81 106.22,92.03 106.17,94.22 
		106.11,96.39 106.06,98.58 106,100.75 105.95,102.89 105.9,105 105.84,107.12 105.79,109.16 105.74,111.23 105.68,113.24 
		105.63,115.26 105.57,117.17 105.52,119.09 105.47,121 105.41,122.82 105.36,124.66 105.3,126.4 105.25,128.11 105.19,129.77 
		105.14,131.43 105.09,133.02 105.03,134.53 104.98,136.05 104.93,137.48 104.87,138.89 104.82,140.23 104.76,141.56 104.71,142.82 
		104.66,144.06 104.6,145.24 104.55,146.35 104.49,147.43 104.44,148.49 104.39,149.5 104.33,150.46 104.28,151.36 104.22,152.25 
		104.17,153.08 104.12,153.88 104.06,154.66 104.01,155.37 103.95,156.08 103.9,156.71 103.84,157.36 103.79,157.94 103.74,158.49 
		103.68,159.02 103.63,159.55 103.58,160.03 103.52,160.46 103.47,160.91 103.41,161.29 103.36,161.67 103.31,162.02 103.25,162.37 
		103.2,162.68 103.14,162.98 103.09,163.26 103.03,163.51 102.98,163.76 102.93,163.96 102.87,164.21 102.82,164.39 102.77,164.54 
		102.71,164.72 102.66,164.89 102.61,165.04 102.55,165.17 102.5,165.32 102.44,165.42 102.39,165.55 102.34,165.65 102.28,165.73 
		102.23,165.83 102.17,165.9 102.12,165.95 102.07,166.05 102.01,166.1 101.96,166.18 101.9,166.23 101.85,166.25 101.79,166.3 
		101.74,166.35 101.69,166.38 101.63,166.43 101.58,166.46 101.53,166.48 101.47,166.53 101.42,166.53 101.36,166.56 101.31,166.58 
		101.26,166.58 101.2,166.61 101.15,166.61 101.09,166.63 101.04,166.63 100.99,166.66 100.93,166.66 100.88,166.66 100.84,166.69 
		100.83,166.69 100.78,166.69 100.72,166.69 100.67,166.67 100.62,166.67 100.56,166.66 100.51,166.66 100.45,166.65 100.4,166.65 
		100.35,166.63 100.29,166.62 100.24,166.62 100.18,166.59 100.13,166.57 100.08,166.56 100.02,166.53 99.97,166.51 99.91,166.49 
		99.86,166.46 99.81,166.44 99.75,166.41 99.7,166.37 99.64,166.34 99.59,166.28 99.53,166.25 99.48,166.21 99.43,166.15 
		99.37,166.11 99.32,166.05 99.27,165.98 99.21,165.92 99.16,165.83 99.1,165.76 99.05,165.67 99,165.57 98.94,165.47 98.89,165.38 
		98.84,165.28 98.78,165.13 98.73,165.02 98.67,164.87 98.62,164.73 98.57,164.57 98.51,164.39 98.46,164.22 98.41,164.01 
		98.35,163.81 98.3,163.59 98.24,163.37 98.19,163.11 98.13,162.86 98.08,162.59 98.03,162.28 97.97,161.98 97.92,161.66 
		97.86,161.32 97.81,160.94 97.76,160.58 97.7,160.17 97.65,159.77 97.59,159.31 97.54,158.85 97.49,158.37 97.43,157.86 
		97.38,157.34 97.32,156.78 97.27,156.2 97.22,155.59 97.16,154.97 97.11,154.33 97.05,153.64 97,152.93 96.95,152.2 96.89,151.43 
		96.84,150.66 96.78,149.84 96.73,149.02 96.68,148.14 96.62,147.27 96.57,146.35 96.51,145.39 96.46,144.43 96.41,143.44 
		96.35,142.44 96.3,141.38 96.25,140.33 96.19,139.23 96.14,138.12 96.08,137.02 96.03,135.85 95.97,134.69 95.92,133.5 
		95.87,132.32 95.81,131.1 95.76,129.87 95.7,128.64 95.65,127.39 95.6,126.12 95.54,124.87 95.49,123.6 95.43,122.32 95.38,121.06 
		95.33,119.78 95.27,118.53 95.22,117.26 95.16,116.03 95.11,114.79 95.06,113.54 95,112.35 94.95,111.14 94.89,109.97 94.84,108.8 
		94.79,107.68 94.73,106.57 94.68,105.49 94.62,104.46 94.57,103.44 94.52,102.45 94.46,101.52 94.41,100.62 94.35,99.76 
		94.3,98.95 94.25,98.19 94.19,97.45 94.14,96.8 94.09,96.17 94.03,95.59 93.98,95.08 93.92,94.61 93.87,94.21 93.81,93.86 
		93.76,93.55 93.71,93.32 93.65,93.14 93.6,93.03 93.54,92.97 93.49,92.97 93.44,93.03 93.39,93.14 93.33,93.32 93.28,93.55 
		93.22,93.86 93.17,94.21 93.11,94.61 93.06,95.08 93.01,95.59 92.95,96.17 92.9,96.8 92.85,97.45 92.79,98.19 92.74,98.95 
		92.68,99.76 92.63,100.62 92.57,101.52 92.52,102.45 92.47,103.44 92.41,104.46 92.36,105.49 92.3,106.57 92.25,107.68 92.2,108.8 
		92.14,109.97 92.09,111.14 92.04,112.35 91.98,113.54 91.93,114.79 91.87,116.03 91.82,117.26 91.76,118.53 91.71,119.78 
		91.66,121.06 91.6,122.32 91.55,123.6 91.49,124.87 91.44,126.12 91.39,127.39 91.33,128.64 91.28,129.87 91.23,131.1 
		91.17,132.32 91.12,133.5 91.06,134.69 91.01,135.85 90.95,137.02 90.9,138.12 90.85,139.23 90.79,140.33 90.74,141.38 
		90.69,142.44 90.63,143.44 90.58,144.43 90.52,145.39 90.47,146.35 90.41,147.27 90.36,148.14 90.31,149.02 90.25,149.84 
		90.2,150.66 90.14,151.43 90.09,152.2 90.04,152.93 89.98,153.64 89.93,154.33 89.88,154.97 89.82,155.59 89.77,156.2 
		89.71,156.78 89.66,157.34 89.6,157.86 89.55,158.37 89.5,158.85 89.44,159.31 89.39,159.77 89.34,160.17 89.28,160.58 
		89.23,160.94 89.17,161.32 89.12,161.66 89.06,161.98 89.01,162.28 88.96,162.59 88.9,162.86 88.85,163.11 88.79,163.37 
		88.74,163.59 88.69,163.81 88.63,164.01 88.58,164.22 88.53,164.39 88.47,164.57 88.42,164.73 88.36,164.87 88.31,165.02 
		88.25,165.13 88.2,165.28 88.15,165.38 88.1,165.47 88.04,165.57 87.99,165.67 87.93,165.76 87.88,165.83 87.83,165.92 
		87.77,165.98 87.72,166.05 87.66,166.11 87.61,166.15 87.55,166.21 87.5,166.25 87.45,166.28 87.39,166.34 87.34,166.37 
		87.29,166.41 87.23,166.44 87.18,166.46 87.12,166.49 87.07,166.51 87.02,166.53 86.96,166.56 86.91,166.57 86.85,166.59 
		86.8,166.62 86.74,166.62 86.69,166.63 86.64,166.65 86.58,166.65 86.53,166.66 86.48,166.66 86.42,166.67 86.37,166.67 
		86.31,166.69 86.26,166.69 86.2,166.69 86.15,166.72 86.1,166.72 86.04,166.72 86.04,166.72 86,166.71 85.94,166.71 85.89,166.71 
		85.83,166.71 85.78,166.71 85.73,166.71 85.67,166.7 85.62,166.7 85.57,166.7 85.51,166.69 85.46,166.68 85.4,166.68 85.35,166.67 
		85.29,166.66 85.24,166.66 85.19,166.65 85.13,166.64 85.08,166.63 85.03,166.62 84.97,166.61 84.92,166.59 84.86,166.58 
		84.81,166.57 84.75,166.55 84.7,166.54 84.65,166.52 84.59,166.5 84.54,166.48 84.48,166.45 84.43,166.43 84.38,166.4 
		84.32,166.37 84.27,166.34 84.22,166.31 84.16,166.28 84.11,166.23 84.05,166.19 84,166.15 83.95,166.1 83.89,166.05 83.84,166 
		83.79,165.94 83.73,165.88 83.68,165.81 83.62,165.75 83.57,165.68 83.52,165.6 83.46,165.52 83.41,165.43 83.35,165.33 
		83.3,165.24 83.24,165.14 83.19,165.03 83.14,164.91 83.08,164.8 83.03,164.67 82.98,164.54 82.92,164.4 82.87,164.26 
		82.81,164.11 82.76,163.95 82.71,163.78 82.65,163.61 82.6,163.43 82.54,163.23 82.49,163.04 82.43,162.84 82.38,162.62 
		82.33,162.4 82.27,162.17 82.22,161.93 82.17,161.68 82.11,161.43 82.06,161.17 82,160.89 81.95,160.62 81.89,160.33 81.84,160.03 
		81.79,159.73 81.73,159.42 81.68,159.1 81.63,158.77 81.57,158.44 81.52,158.09 81.46,157.75 81.41,157.4 81.36,157.03 
		81.3,156.67 81.25,156.29 81.19,155.92 81.14,155.54 81.08,155.16 81.03,154.77 80.98,154.37 80.92,153.98 80.87,153.58 
		80.82,153.19 80.76,152.79 80.71,152.39 80.65,151.99 80.6,151.59 80.55,151.2 80.49,150.81 80.44,150.42 80.38,150.03 
		80.33,149.65 80.28,149.27 80.22,148.91 80.17,148.54 80.11,148.18 80.06,147.84 80.01,147.5 79.95,147.17 79.9,146.86 
		79.84,146.54 79.79,146.25 79.73,145.97 79.68,145.7 79.63,145.44 79.57,145.21 79.52,144.97 79.47,144.77 79.41,144.57 
		79.36,144.39 79.3,144.23 79.25,144.08 79.2,143.95 79.14,143.84 79.09,143.75 79.03,143.68 78.98,143.62 78.92,143.58 
		78.87,143.57 78.82,143.57 78.77,143.58 78.71,143.62 78.66,143.68 78.6,143.75 78.55,143.84 78.5,143.95 78.44,144.08 
		78.39,144.23 78.33,144.39 78.28,144.57 78.23,144.77 78.17,144.97 78.12,145.21 78.06,145.44 78.01,145.7 77.96,145.97 
		77.9,146.25 77.85,146.54 77.79,146.86 77.74,147.17 77.69,147.5 77.63,147.84 77.58,148.18 77.52,148.54 77.47,148.91 
		77.42,149.27 77.36,149.65 77.31,150.03 77.25,150.42 77.2,150.81 77.15,151.2 77.09,151.59 77.04,151.99 76.98,152.39 
		76.93,152.79 76.88,153.19 76.82,153.58 76.77,153.98 76.71,154.37 76.66,154.77 76.61,155.16 76.55,155.54 76.5,155.92 
		76.44,156.29 76.39,156.67 76.34,157.03 76.28,157.4 76.23,157.75 76.17,158.09 76.12,158.44 76.07,158.77 76.01,159.1 
		75.96,159.42 75.9,159.73 75.85,160.03 75.8,160.33 75.74,160.62 75.69,160.89 75.63,161.17 75.58,161.43 75.52,161.68 
		75.47,161.93 75.42,162.17 75.36,162.4 75.31,162.62 75.26,162.84 75.2,163.04 75.15,163.23 75.09,163.43 75.04,163.61 
		74.99,163.78 74.93,163.95 74.88,164.11 74.82,164.26 74.77,164.4 74.72,164.54 74.66,164.67 74.61,164.8 74.55,164.91 
		74.5,165.03 74.45,165.14 74.39,165.24 74.34,165.33 74.29,165.43 74.23,165.52 74.18,165.6 74.12,165.68 74.07,165.75 
		74.01,165.81 73.96,165.88 73.91,165.94 73.85,166 73.8,166.05 73.74,166.1 73.69,166.15 73.64,166.19 73.58,166.23 73.53,166.28 
		73.47,166.31 73.42,166.34 73.37,166.37 73.31,166.4 73.26,166.43 73.21,166.45 73.15,166.48 73.1,166.5 73.05,166.52 
		72.99,166.54 72.94,166.55 72.88,166.57 72.83,166.58 72.77,166.59 72.72,166.61 72.67,166.62 72.61,166.63 72.56,166.64 
		72.5,166.65 72.45,166.66 72.4,166.66 72.34,166.67 72.29,166.68 72.24,166.68 72.18,166.69 72.13,166.7 72.07,166.7 72.02,166.7 
		71.96,166.71 71.91,166.71 71.86,166.71 71.8,166.71 71.75,166.71 71.69,166.71 71.64,166.72 71.59,166.72 71.53,166.72 
		71.48,166.73 71.42,166.73 71.37,166.73 71.32,166.73 71.26,166.73 71.21,166.73 85.45,166.73 85.5,166.73 85.56,166.73 
		85.61,166.73 85.67,166.73 85.72,166.73 85.77,166.73 85.83,166.73 85.88,166.73 86.48,166.73 86.54,166.73 86.59,166.73 
		86.64,166.73 86.7,166.73 86.75,166.73 86.81,166.73 86.86,166.73 86.92,166.73 100.12,166.73 100.18,166.73 100.23,166.73 
		100.28,166.73 100.34,166.73 100.39,166.73 100.45,166.73 100.5,166.73 100.56,166.73 101.16,166.73 101.21,166.73 101.26,166.73 
		101.32,166.73 101.37,166.73 101.43,166.73 101.48,166.73 101.53,166.73 101.59,166.73 114.8,166.73 114.85,166.73 114.9,166.73 
		114.96,166.73 115.01,166.73 115.06,166.73 115.12,166.73 115.17,166.73 115.77,166.73 115.83,166.73 115.88,166.73 115.94,166.73 
		115.99,166.73 116.05,166.73 116.1,166.73 116.15,166.73 116.21,166.73 129.41,166.73 129.47,166.73 129.52,166.73 129.58,166.73 
		129.63,166.73 129.68,166.73 129.74,166.73 129.79,166.73 129.85,166.73 130.45,166.73 130.5,166.73 130.55,166.73 130.61,166.73 
		130.66,166.73 130.72,166.73 130.77,166.73 130.83,166.73 130.88,166.73 144.09,166.73 144.14,166.73 144.19,166.73 144.25,166.73 
		144.3,166.73 144.36,166.73 144.41,166.73 144.47,166.73 144.52,166.73 145.12,166.73 145.17,166.73 145.23,166.73 145.28,166.73 
		145.34,166.73 145.39,166.73 145.44,166.73 145.5,166.73 145.55,166.73 158.76,166.73 158.81,166.73 158.87,166.73 158.92,166.73 
		158.97,166.73 159.03,166.73 159.08,166.73 159.14,166.73 159.19,166.73 159.79,166.73 159.85,166.73 159.9,166.73 159.96,166.73 
		160.01,166.73 160.06,166.73 160.12,166.73 160.17,166.73 160.22,166.73 174.47,166.73 	"/>
</g>
</svg>
